<svg xmlns="http://www.w3.org/2000/svg" width="38.569" height="51.026" viewBox="0 0 38.569 51.026"><g transform="translate(-2135.635 2401.553)"><g transform="translate(2135.635 -2401.553)"><path d="M2157-2377.181c-.164-.155-.331-.316-.492-.471-.376-.362-.765-.736-1.172-1.09a5.093,5.093,0,0,0-1.407-.86,22.317,22.317,0,0,0,1.823-4.368,18.219,18.219,0,0,0,.744-5.109,18.268,18.268,0,0,0-.747-5.106,22.439,22.439,0,0,0-1.813-4.354,8.594,8.594,0,0,0,3.107-2.562.664.664,0,0,0,.127-.646.665.665,0,0,0-.491-.438l-.121-.026-.186-.039c-.055-.011-.112-.021-.168-.03a7.074,7.074,0,0,1-3.792-1.764,28.787,28.787,0,0,0-4.01-3.078,25.856,25.856,0,0,0-5.325-2.421,5.989,5.989,0,0,1-3.207-2.454c-.274-.423-.538-.872-.793-1.306-.123-.208-.249-.424-.377-.636-.042-.07-.084-.135-.129-.2l-.065-.1a.665.665,0,0,0-.56-.307h-.013a.663.663,0,0,0-.561.329q-.151.258-.3.508c-.218.369-.425.718-.627,1.082a6.567,6.567,0,0,1-3.885,3.2,23.559,23.559,0,0,0-4.34,1.89,29.85,29.85,0,0,0-4.866,3.618,6.322,6.322,0,0,1-2.831,1.474c-.289.064-.582.122-.892.184l-.457.092a.664.664,0,0,0-.5.443.664.664,0,0,0,.138.652,9.05,9.05,0,0,0,3.154,2.547,22.493,22.493,0,0,0-1.812,4.359,18.276,18.276,0,0,0-.746,5.108,18.187,18.187,0,0,0,.744,5.106,22.241,22.241,0,0,0,1.824,4.364,8.957,8.957,0,0,0-3.138,2.51.664.664,0,0,0,0,.874l.012.015a.681.681,0,0,0,.361.242,1.542,1.542,0,0,0,.181.041,8.093,8.093,0,0,1,4.4,2.092,25.052,25.052,0,0,0,9.153,5.312,6.744,6.744,0,0,1,1.33.639,8.657,8.657,0,0,1,2.926,3.742l.133.252a.664.664,0,0,0,.588.354h.055a.665.665,0,0,0,.579-.338c.122-.217.244-.437.362-.651.255-.461.519-.938.793-1.391a6.012,6.012,0,0,1,3.422-2.679,25.7,25.7,0,0,0,4.551-2.015,27.913,27.913,0,0,0,4.971-3.675,5.95,5.95,0,0,1,2.666-1.383l.915-.215.413-.1a.665.665,0,0,0,.421-.312l.035-.061.012-.02A.664.664,0,0,0,2157-2377.181Zm-4.784-23.539a2.379,2.379,0,0,1-.434-.041,6.9,6.9,0,0,1-2.232-.87.666.666,0,0,0-.334-.09.663.663,0,0,0-.49.216l-.175.193c-.133.148-.26.287-.39.42a1.552,1.552,0,0,1-.255.222.429.429,0,0,1-.093.047.394.394,0,0,1-.077-.052c-.184-.149-.362-.3-.55-.468-.2-.177-.413-.36-.632-.536a5.93,5.93,0,0,0-2.678-1.434,8.682,8.682,0,0,0-1.454-.1c-.271,0-.541.007-.8.014h-.04a5.6,5.6,0,0,0-3.63,1.477,5.773,5.773,0,0,0-3.746-1.5h-.036a5.875,5.875,0,0,0-.806-.057,5.632,5.632,0,0,0-2.455.573,8.493,8.493,0,0,0-2.031,1.418c-.087.079-.176.157-.271.239-.116.1-.236.205-.354.316a.376.376,0,0,1-.163.108.544.544,0,0,1-.241-.162c-.145-.137-.286-.294-.435-.46-.072-.08-.147-.164-.225-.248a.664.664,0,0,0-.488-.213.66.66,0,0,0-.3.07c-.1.049-.2.1-.289.147-.2.1-.389.2-.579.282a4.8,4.8,0,0,1-1.823.487,2.454,2.454,0,0,1-.248-.012,2.253,2.253,0,0,1-.263-.043,16.123,16.123,0,0,0,2.713-2.005c.155-.133.316-.27.473-.4a20.067,20.067,0,0,1,6.694-3.747,10.591,10.591,0,0,0,3.008-1.515,8.742,8.742,0,0,0,1.872-1.879c.069.094.138.188.209.28a8.267,8.267,0,0,0,2.047,1.9,10.348,10.348,0,0,0,2.47,1.163,21.1,21.1,0,0,1,7.371,4.247,27.173,27.173,0,0,0,2.49,1.86c.053.037.108.072.162.1A2.206,2.206,0,0,1,2152.211-2400.72Zm-27.856,2.535h.031a4.507,4.507,0,0,0,1.986-.585,3.367,3.367,0,0,0,.356.229l.081.048a2.635,2.635,0,0,0,1.363.422,2.522,2.522,0,0,0,1.581-.621l.558-.443c.495-.394,1.006-.8,1.515-1.186a1.86,1.86,0,0,1,1.149-.373l.085,0,.352.011c.409.012.8.024,1.179.062a2.745,2.745,0,0,1,1.747.87c.248.254.493.511.753.784l.373.39a.666.666,0,0,0,.48.2h0a.664.664,0,0,0,.48-.206c.105-.111.209-.217.309-.32.218-.224.423-.436.623-.662A3.623,3.623,0,0,1,2142-2400.7c.132-.011.264-.016.39-.016a3.529,3.529,0,0,1,2.485.966c.4.36.825.691,1.235,1.011l.128.1a2.375,2.375,0,0,0,1.488.567,2.542,2.542,0,0,0,1.274-.375l.061-.033a1.418,1.418,0,0,0,.391-.273.373.373,0,0,1,.034-.032.922.922,0,0,1,.183.083,4,4,0,0,0,1.866.527,15.546,15.546,0,0,1,2.439,5.952,17.1,17.1,0,0,1-.5,8.306,15.025,15.025,0,0,1-1.948,3.972,5,5,0,0,0-2.011.6,6.272,6.272,0,0,0-.619-.378,2.491,2.491,0,0,0-1.145-.295,2.355,2.355,0,0,0-1.511.575l-.425.35c-.381.315-.775.64-1.169.941a2.871,2.871,0,0,1-1.366.715c-.4.037-.726.053-1.016.053a4.335,4.335,0,0,1-1.671-.282,4.549,4.549,0,0,1-1.117-.761,7.452,7.452,0,0,1-.686-.693c-.118-.129-.24-.263-.372-.4a.664.664,0,0,0-.48-.205h0a.665.665,0,0,0-.481.208c-.106.112-.209.22-.31.324-.219.228-.426.443-.628.672a3.636,3.636,0,0,1-2.676,1.133c-.123.01-.245.014-.363.014a3.664,3.664,0,0,1-2.609-1.062c-.177-.164-.359-.312-.535-.455-.155-.126-.3-.246-.439-.37a2.621,2.621,0,0,0-1.768-.762,2.833,2.833,0,0,0-1.7.644.85.85,0,0,1-.073.05c-.014-.007-.033-.016-.058-.03a4.646,4.646,0,0,0-1.935-.592,15.11,15.11,0,0,1-2.361-5.521A16.537,16.537,0,0,1,2124.355-2398.185Zm-.621,20.774a5,5,0,0,1,2.595.93.665.665,0,0,0,.358.1.663.663,0,0,0,.489-.215c.071-.077.14-.154.208-.229.143-.159.279-.309.418-.448.19-.191.271-.193.272-.193a.477.477,0,0,1,.223.143,11.484,11.484,0,0,0,2.571,1.88,4.451,4.451,0,0,0,2.046.528h.1l.12,0c.624-.016,1.27-.032,1.913-.1a4.867,4.867,0,0,0,2.722-1.218l.168-.144a5.62,5.62,0,0,0,3.8,1.447l.95.013.208,0h.063a5.422,5.422,0,0,0,3.2-1.223,16.693,16.693,0,0,0,1.463-1.205.436.436,0,0,1,.2-.127s.075,0,.245.168c.148.143.288.3.437.464.067.074.137.151.207.227a.664.664,0,0,0,.488.213.659.659,0,0,0,.3-.073c.143-.073.283-.147.419-.219.288-.152.56-.3.836-.417a3.492,3.492,0,0,1,1.391-.321,2.6,2.6,0,0,1,.58.065,16.057,16.057,0,0,0-2.667,1.927c-.388.331-.794.66-1.186.979l-.124.1a19.83,19.83,0,0,1-6.08,3.233,9,9,0,0,0-4,2.474c-.245.285-.478.583-.7.877a8.89,8.89,0,0,0-4.479-3.259,20.888,20.888,0,0,1-7.482-4.262,14.987,14.987,0,0,0-2.806-2.068A2.554,2.554,0,0,1,2123.734-2377.411Z" transform="translate(-2118.635 2414.553)" fill="#282828"/><path d="M2443.475-2275.587a1.606,1.606,0,0,1-1.665,1.6,1.608,1.608,0,0,1-1.625-1.645,1.647,1.647,0,0,1,1.654-1.632A1.647,1.647,0,0,1,2443.475-2275.587Z" transform="translate(-2422.385 2284.859)" fill="#282828"/><path d="M2558.887-2248a.456.456,0,0,1,.558-.482,7.276,7.276,0,0,1,4.041,2.151.442.442,0,0,1,.016.673.485.485,0,0,1-.7-.031,6.054,6.054,0,0,0-3.429-1.8C2559.027-2247.562,2558.886-2247.708,2558.887-2248Z" transform="translate(-2534.516 2257.684)" fill="#282828"/><path d="M2294.182-2247.913c0,.284-.139.44-.462.51a7.981,7.981,0,0,0-2.167.772,4.11,4.11,0,0,0-1.222.971.494.494,0,0,1-.533.2.447.447,0,0,1-.249-.746,5.623,5.623,0,0,1,1.619-1.3,9.445,9.445,0,0,1,2.344-.876C2293.9-2248.475,2294.181-2248.273,2294.182-2247.913Z" transform="translate(-2279.974 2257.6)" fill="#282828"/><path d="M2434.392-1684.655a1.607,1.607,0,0,1,1.665-1.6,1.609,1.609,0,0,1,1.625,1.645,1.647,1.647,0,0,1-1.654,1.632A1.647,1.647,0,0,1,2434.392-1684.655Z" transform="translate(-2416.913 1726.575)" fill="#282828"/><path d="M2293.85-1707.066a.457.457,0,0,1-.558.482,7.273,7.273,0,0,1-4.042-2.151.442.442,0,0,1-.016-.673.485.485,0,0,1,.7.031,6.053,6.053,0,0,0,3.429,1.8C2293.709-1707.5,2293.851-1707.355,2293.85-1707.066Z" transform="translate(-2279.652 1748.57)" fill="#282828"/><path d="M2558.709-1706.948c0-.284.139-.44.462-.51a7.992,7.992,0,0,0,2.167-.772,4.115,4.115,0,0,0,1.222-.971.493.493,0,0,1,.533-.2.447.447,0,0,1,.249.746,5.618,5.618,0,0,1-1.619,1.3,9.462,9.462,0,0,1-2.344.877C2558.987-1706.386,2558.709-1706.587,2558.709-1706.948Z" transform="translate(-2534.348 1748.452)" fill="#282828"/></g><path d="M2380.727-2045.309a5.348,5.348,0,0,1-1.232,1.7,5.2,5.2,0,0,1-.355,2.1,5.353,5.353,0,0,1-2.072.33,5.4,5.4,0,0,1-1.711,1.243,5.257,5.257,0,0,1-1.747-1.243,5.34,5.34,0,0,1-2.064-.33,5.2,5.2,0,0,1-.355-2.094,5.086,5.086,0,0,1-1.2-1.7,4.975,4.975,0,0,1,1.206-1.74,5.094,5.094,0,0,1,.353-2.058,4.759,4.759,0,0,1,2.083-.376,4.936,4.936,0,0,1,1.729-1.2,5.031,5.031,0,0,1,1.692,1.194,4.7,4.7,0,0,1,2.091.378,5.1,5.1,0,0,1,.354,2.062A5.214,5.214,0,0,1,2380.727-2045.309Z" transform="translate(-220.437 -330.73)" fill="#39a289"/></g></svg>