<svg xmlns="http://www.w3.org/2000/svg" width="24" height="24" viewBox="0 0 24 24"><path d="M0,0H24V24H0Z" fill="#777" opacity="0"/><g transform="translate(6.36 4.607)"><path d="M33.6,37.91V30.444a1.74,1.74,0,0,1,1.737-1.734h6.2a1.74,1.74,0,0,1,1.737,1.734v9.1a1.744,1.744,0,0,1-1.737,1.737h-6.2A1.74,1.74,0,0,1,33.6,39.548Zm-1.526,1.236a.719.719,0,0,0,.719-.719V30.233a2.306,2.306,0,0,1,2.293-2.3h5.039a.719.719,0,0,0,0-1.437H35.09a3.746,3.746,0,0,0-3.73,3.733v8.194A.719.719,0,0,0,32.078,39.146Z" transform="translate(-31.36 -26.5)" fill="#777"/></g></svg>