<svg xmlns="http://www.w3.org/2000/svg" xmlns:xlink="http://www.w3.org/1999/xlink" width="190" height="117" viewBox="0 0 190 117">
  <defs>
    <filter id="Rectangle_2833" x="0" y="0" width="190" height="117" filterUnits="userSpaceOnUse">
      <feOffset dy="2" input="SourceAlpha"/>
      <feGaussianBlur stdDeviation="5" result="blur"/>
      <feFlood flood-opacity="0.071"/>
      <feComposite operator="in" in2="blur"/>
      <feComposite in="SourceGraphic"/>
    </filter>
  </defs>
  <g id="Diary-vector" transform="translate(-5 -543)">
    <g transform="matrix(1, 0, 0, 1, 5, 543)" filter="url(#Rectangle_2833)">
      <rect id="Rectangle_2833-2" data-name="Rectangle 2833" width="160" height="87" rx="12" transform="translate(15 13)" fill="#fff" opacity="0"/>
    </g>
    <path id="Path_18888" data-name="Path 18888" d="M295.516,37.169h-51.7a18.476,18.476,0,0,1,.607-8.682,10.4,10.4,0,0,1,1.243-2.672,6.81,6.81,0,0,1,11.956,1.4,27.908,27.908,0,0,1,3.655-11.444,12.371,12.371,0,0,1,9.726-5.7,13.038,13.038,0,0,1,10.349,6.256c2.338,3.49,3.685,11.807,3.685,11.807s1.505-2.485,3.747-2.2a5.7,5.7,0,0,1,3.5,2.294,14.588,14.588,0,0,1,3.225,8.684Z" transform="translate(-192.052 562.331)" fill="#e2e2e2"/>
    <g id="Group_13015" data-name="Group 13015" transform="translate(-113.808 574.184)">
      <path id="Path_19999" data-name="Path 19999" d="M233.576,10.191V22.31H229.83a1.268,1.268,0,0,0-.289.022,5.654,5.654,0,0,0-3.8,1.746,5.73,5.73,0,0,0-1.634,4.136,5.829,5.829,0,0,0,5.437,5.7,2.157,2.157,0,0,0,.378.022h3.658V46.07a3.59,3.59,0,0,1-3.591,3.591H192.25V11.981A5.378,5.378,0,0,1,197.631,6.6h32.354A3.583,3.583,0,0,1,233.576,10.191Z" transform="translate(0)" fill="#39a289"/>
      <path id="Path_20000" data-name="Path 20000" d="M225.738,24.078a5.73,5.73,0,0,0-1.634,4.136,5.829,5.829,0,0,0,5.437,5.7v8.105a3.582,3.582,0,0,1-3.591,3.591c-13.942,0-22.359.011-27.306.011s-6.393.011-6.393.011V11.981A5.378,5.378,0,0,1,197.631,6.6H229.54V22.332A5.654,5.654,0,0,0,225.738,24.078Z" transform="translate(0)" fill="#f5faf9"/>
      <g id="Path_19982" data-name="Path 19982" transform="translate(225.437 23.644)">
        <path id="Path_20001" data-name="Path 20001" d="M232.029,23.72V29.1a1.789,1.789,0,0,1-1.79,1.79h-3.658a2.158,2.158,0,0,1-.378-.022,4.474,4.474,0,0,1,0-8.917,2.931,2.931,0,0,1,.311-.022h3.725A1.789,1.789,0,0,1,232.029,23.72Z" transform="translate(-222.099 -21.93)" fill="#39a289"/>
      </g>
      <path id="Path_19984" data-name="Path 19984" d="M216.273,36.447H204.147a1.347,1.347,0,1,0,0,2.695h12.126a1.347,1.347,0,0,0,0-2.695Z" transform="translate(0.685 2.784)" fill="#39a289"/>
      <path id="Path_19986" data-name="Path 19986" d="M218.446,19.722a6.147,6.147,0,0,1-1.412,1.947,6,6,0,0,1-.407,2.4,6.15,6.15,0,0,1-2.374.379,6.218,6.218,0,0,1-1.96,1.423,6.016,6.016,0,0,1-2-1.424,6.119,6.119,0,0,1-2.365-.378,5.938,5.938,0,0,1-.406-2.4,5.82,5.82,0,0,1-1.38-1.95,5.7,5.7,0,0,1,1.382-1.993,5.83,5.83,0,0,1,.4-2.357,5.436,5.436,0,0,1,2.386-.431,5.639,5.639,0,0,1,1.98-1.37,5.768,5.768,0,0,1,1.938,1.369,5.39,5.39,0,0,1,2.4.434,5.868,5.868,0,0,1,.4,2.362A5.99,5.99,0,0,1,218.446,19.722Z" transform="translate(-1.398 0.779)" fill="#39a289"/>
    </g>
    <path id="Path_18888-2" data-name="Path 18888" d="M280.974,29.584H243.747a13.3,13.3,0,0,1,.437-6.252,7.491,7.491,0,0,1,.895-1.924,4.9,4.9,0,0,1,8.609,1.006,20.1,20.1,0,0,1,2.632-8.241,8.908,8.908,0,0,1,7-4.1,9.389,9.389,0,0,1,7.453,4.5c1.684,2.513,2.654,8.5,2.654,8.5s1.084-1.79,2.7-1.588a4.107,4.107,0,0,1,2.521,1.652,10.5,10.5,0,0,1,2.323,6.253Z" transform="translate(-132.7 596.261)" fill="#e2e2e2"/>
  </g>
</svg>
