<svg xmlns="http://www.w3.org/2000/svg" xmlns:xlink="http://www.w3.org/1999/xlink" width="190" height="117" viewBox="0 0 190 117">
  <defs>
    <filter id="Rectangle_2834" x="0" y="0" width="190" height="117" filterUnits="userSpaceOnUse">
      <feOffset dy="2" input="SourceAlpha"/>
      <feGaussianBlur stdDeviation="5" result="blur"/>
      <feFlood flood-opacity="0.071"/>
      <feComposite operator="in" in2="blur"/>
      <feComposite in="SourceGraphic"/>
    </filter>
  </defs>
  <g id="golden-vector" transform="translate(-180 -543)">
    <g transform="matrix(1, 0, 0, 1, 180, 543)" filter="url(#Rectangle_2834)">
      <rect id="Rectangle_2834-2" data-name="Rectangle 2834" width="160" height="87" rx="12" transform="translate(15 13)" fill="#fff" opacity="0"/>
    </g>
    <path id="Path_18888" data-name="Path 18888" d="M284.237,31.286H243.763a14.465,14.465,0,0,1,.475-6.8,8.143,8.143,0,0,1,.973-2.092,5.332,5.332,0,0,1,9.36,1.094,21.85,21.85,0,0,1,2.862-8.96,9.685,9.685,0,0,1,7.615-4.463,10.208,10.208,0,0,1,8.1,4.9c1.83,2.732,2.885,9.244,2.885,9.244s1.179-1.946,2.934-1.726a4.466,4.466,0,0,1,2.741,1.8,11.421,11.421,0,0,1,2.525,6.8Z" transform="translate(-19.158 563.331)" fill="#e2e2e2"/>
    <path id="Path_18888-2" data-name="Path 18888" d="M298.157,38.547H243.833a19.415,19.415,0,0,1,.638-9.124,10.931,10.931,0,0,1,1.306-2.807,7.156,7.156,0,0,1,12.563,1.468,29.327,29.327,0,0,1,3.841-12.026,13,13,0,0,1,10.22-5.99,13.7,13.7,0,0,1,10.875,6.574c2.457,3.667,3.873,12.407,3.873,12.407s1.582-2.612,3.938-2.317a5.994,5.994,0,0,1,3.679,2.41,15.329,15.329,0,0,1,3.389,9.125Z" transform="translate(25.305 590.353)" fill="#e2e2e2"/>
    <g id="Group_12733" data-name="Group 12733" transform="translate(457.777 508.218)">
      <path id="Path_18994" data-name="Path 18994" d="M-96.78,90.355l3.387,5.687,3.041-1.6-2.115-3.24,1.42-.722,2.115,3.24,3.159-1.74L-89.16,86.3Z" transform="translate(-67.182 -7.432)" fill="#fdd983"/>
      <path id="Path_18995" data-name="Path 18995" d="M-102.62,73.314l-21.358,11.1a2.542,2.542,0,0,1,.392.554l1.644,3.163a2.558,2.558,0,0,1,.229.639l6.619-3.441,2.459-1.279,3.518-1.829,1.99-1.035,3.568-1.855,2.41-1.252.795-.413a2.455,2.455,0,0,0,1.045-3.31A2.454,2.454,0,0,0-102.62,73.314Z" transform="translate(-55.598 0)" fill="#e8c267"/>
      <path id="Path_18997" data-name="Path 18997" d="M-131.225,99.231a1.691,1.691,0,0,0-.775,2.158c.024.04.049.078.07.12l1.644,3.163c.022.042.039.084.058.127a1.691,1.691,0,0,0,2.211.606,1.7,1.7,0,0,0,.723-2.288l-1.644-3.163A1.7,1.7,0,0,0-131.225,99.231Z" transform="translate(-51.027 -14.576)" fill="#fdd983"/>
      <path id="Path_18998" data-name="Path 18998" d="M-139.808,103.693a1.691,1.691,0,0,0-.775,2.158c.024.04.049.078.07.12l1.644,3.163c.022.042.039.084.058.127a1.691,1.691,0,0,0,2.211.606,1.7,1.7,0,0,0,.723-2.288l-1.644-3.163A1.7,1.7,0,0,0-139.808,103.693Z" transform="translate(-46.216 -17.077)" fill="#e8c267"/>
      <path id="Path_18999" data-name="Path 18999" d="M-148.4,108.155a1.7,1.7,0,0,0-.722,2.288l1.644,3.163a1.7,1.7,0,0,0,2.288.722,1.7,1.7,0,0,0,.722-2.288l-1.644-3.163A1.7,1.7,0,0,0-148.4,108.155Z" transform="translate(-41.396 -19.579)" fill="#fdd983"/>
      <path id="Path_19000" data-name="Path 19000" d="M-204.726,114.466a7.3,7.3,0,0,0-9.841-3.109,7.3,7.3,0,0,0-3.455,9.064,7.274,7.274,0,0,0-2.874.806,7.3,7.3,0,0,0-3.109,9.841,7.3,7.3,0,0,0,9.841,3.109,7.266,7.266,0,0,0,2.353-1.943,7.3,7.3,0,0,0,9.155,2.034,7.3,7.3,0,0,0,3.109-9.841,7.281,7.281,0,0,0-4.927-3.765A7.281,7.281,0,0,0-204.726,114.466Zm-10.234,5.32a4.241,4.241,0,0,1,1.8-5.713,4.241,4.241,0,0,1,5.713,1.8,4.244,4.244,0,0,1-.768,4.955A14.884,14.884,0,0,0-210.463,122,4.244,4.244,0,0,1-214.96,119.786Zm-6.33,9.87a4.241,4.241,0,0,1,1.8-5.713,4.241,4.241,0,0,1,5.713,1.8,4.208,4.208,0,0,1,.464,1.617c-.014.235-.016.471-.007.708a4.233,4.233,0,0,1-2.261,3.388A4.241,4.241,0,0,1-221.29,129.656Zm17.221,1.9a4.242,4.242,0,0,1-5.714-1.8,4.221,4.221,0,0,1-.464-1.617q.021-.353.008-.707a4.252,4.252,0,0,1,1.224-2.63,14.846,14.846,0,0,0,2.253-1.172,4.244,4.244,0,0,1,4.5,2.218A4.242,4.242,0,0,1-204.068,131.552Z" transform="translate(11.792 -26.543)" fill="#fdd983"/>
    </g>
  </g>
</svg>
