<svg xmlns="http://www.w3.org/2000/svg" width="35.507" height="35.507" viewBox="0 0 35.507 35.507"><g transform="translate(120.192 -61.744)"><path d="M-88.758,85.116c2.363-2.622,4.073-4.845,4.073-5.618,0-.833-1.712-3.1-4.079-5.74-.2-3.481-.586-6.234-1.168-6.815-.743-.744-3.739-1.091-6.914-1.25-2.578-2.3-4.776-3.948-5.593-3.948-.877,0-3.114,1.652-5.714,3.954-3.165.163-6.157.515-6.886,1.244-.581.581-.969,3.327-1.167,6.8-2.319,2.616-3.987,4.87-3.987,5.752,0,.821,1.664,3.034,3.98,5.628.2,3.534.586,6.336,1.173,6.924.544.544,3.314.907,6.825,1.091,2.658,2.383,4.939,4.11,5.776,4.11.776,0,3.019-1.728,5.658-4.109,3.522-.183,6.3-.547,6.848-1.092C-89.343,91.461-88.953,88.653-88.758,85.116Zm2.344-5.624a14.555,14.555,0,0,1-2.239,3.029c.054-2.011.054-4.127,0-6.135A13.961,13.961,0,0,1-86.413,79.492Zm-28.131-5.048c2.123-2.312,4.764-4.961,7.061-7.08,3.143-.136,6.894-.14,10.024-.015,2.3,2.124,4.953,4.784,7.087,7.109.123,3.119.118,6.855-.016,10-2.125,2.3-4.76,4.935-7.052,7.068-3.14.122-6.891.127-10.033.011-2.308-2.14-4.956-4.793-7.081-7.1C-114.673,81.3-114.669,77.567-114.544,74.443Zm23.382-6.314a11.055,11.055,0,0,1,.645,3.727c-1.393-1.469-2.9-2.976-4.367-4.362A11.391,11.391,0,0,1-91.163,68.129Zm-11.307-4.675A10.9,10.9,0,0,1-99.416,65.6c-1.108-.025-2.171-.035-3.09-.037-.891,0-1.924.011-3,.037A11.247,11.247,0,0,1-102.469,63.454Zm-11.344,4.7a12.379,12.379,0,0,1,3.667-.629c-1.432,1.351-2.895,2.812-4.247,4.245A13.124,13.124,0,0,1-113.814,68.152Zm-4.656,11.335a12.375,12.375,0,0,1,2.153-3.044c-.054,1.97-.055,4.042,0,6.015A13.079,13.079,0,0,1-118.47,79.487Zm4.647,11.342a13.288,13.288,0,0,1-.59-3.746c1.372,1.45,2.858,2.936,4.309,4.312A13.594,13.594,0,0,1-113.823,90.829Zm11.381,4.7a13.563,13.563,0,0,1-3.129-2.285c1.01.025,2.048.039,3.085.039,1.057,0,2.112-.014,3.139-.04A13.927,13.927,0,0,1-102.442,95.527Zm7.558-4.144c1.459-1.387,2.959-2.887,4.345-4.345a13.957,13.957,0,0,1-.612,3.786A14.592,14.592,0,0,1-94.883,91.383Z" fill="#fdd983"/><path d="M-110.415,85.49c.279.279,1.862.454,3.866.538,1.478,1.355,2.73,2.351,3.133,2.351s1.646-1.006,3.126-2.368a11.2,11.2,0,0,0,3.818-.52,11.278,11.278,0,0,0,.559-3.88,11.413,11.413,0,0,0,2.356-3.091,11.218,11.218,0,0,0-2.325-3.11c-.087-1.979-.276-3.549-.59-3.863-.3-.3-1.849-.491-3.816-.587-1.451-1.329-2.687-2.3-3.129-2.3-.421,0-1.668.972-3.132,2.3-2,.1-3.577.293-3.867.584-.266.266-.449,1.835-.542,3.832-1.338,1.477-2.319,2.731-2.319,3.141a10.821,10.821,0,0,0,2.306,3.066C-110.885,83.6-110.7,85.2-110.415,85.49Z" transform="translate(0.978 0.978)" fill="#fdd983"/></g></svg>