<svg xmlns="http://www.w3.org/2000/svg" width="106.55" height="54.864" viewBox="0 0 106.55 54.864"><g transform="translate(-225.735 -338.619)"><path d="M284.237,31.286H243.763a14.465,14.465,0,0,1,.475-6.8,8.143,8.143,0,0,1,.973-2.092,5.332,5.332,0,0,1,9.36,1.094,21.85,21.85,0,0,1,2.862-8.96,9.685,9.685,0,0,1,7.615-4.463,10.208,10.208,0,0,1,8.1,4.9c1.83,2.732,2.885,9.244,2.885,9.244s1.179-1.946,2.934-1.726a4.466,4.466,0,0,1,2.741,1.8,11.421,11.421,0,0,1,2.525,6.8Z" transform="translate(-17.825 330.331)" fill="#e2e2e2"/><g transform="translate(251.821 338.619)"><path d="M-275.072,79.842h3.227c2.843,0,2.843-4.533,0-4.533h-3.227A2.267,2.267,0,1,0-275.072,79.842Z" transform="translate(277.348 -54.817)" fill="#fdd983"/><path d="M-218.612,79.842h3.227c2.842,0,2.842-4.533,0-4.533h-3.227A2.267,2.267,0,1,0-218.612,79.842Z" transform="translate(259.219 -54.817)" fill="#fdd983"/><path d="M-246.387,47.258v3.226a2.266,2.266,0,1,0,4.532,0V47.258C-241.855,44.415-246.387,44.415-246.387,47.258Z" transform="translate(267.407 -45.126)" fill="#fdd983"/><path d="M-224.335,60.061l2.3-2.228c2.075-2.149-1.076-5.376-3.226-3.226l-2.3,2.227C-229.559,58.908-226.332,62.058-224.335,60.061Z" transform="translate(261.564 -47.942)" fill="#fdd983"/><path d="M-265.669,60.169c2.074,2,5.224-1.23,3.226-3.227l-2.3-2.228c-2.074-2.15-5.377,1-3.149,3.149Z" transform="translate(274.552 -47.974)" fill="#fdd983"/><path d="M-243.459,107.132v-3.226a2.266,2.266,0,1,0-4.532,0v3.226C-247.991,109.974-243.459,109.974-243.459,107.132Z" transform="translate(267.922 -63.269)" fill="#fdd983"/><path d="M-266.6,94.723l-2.3,2.228c-2.075,2.149,1.076,5.376,3.226,3.226l2.3-2.227C-261.377,95.875-264.6,92.725-266.6,94.723Z" transform="translate(274.855 -60.846)" fill="#fdd983"/><path d="M-225.264,94.614c-2.074-2-5.224,1.23-3.226,3.227l2.3,2.227c2.074,2.15,5.377-1,3.149-3.149Z" transform="translate(261.865 -60.814)" fill="#fdd983"/><path d="M-239.029,66.6a12,12,0,0,0-3.432-3.591c-.127-.086-.255-.168-.386-.248a12.017,12.017,0,0,0-10.879-.754,12.486,12.486,0,0,0-6.637,6.792,11.879,11.879,0,0,0-.847,4.391,13.261,13.261,0,0,0,1.025,4.775,11.661,11.661,0,0,0,2.513,3.885,11.854,11.854,0,0,0,10.74,3.235,12.145,12.145,0,0,0,4.874-2.147,12.34,12.34,0,0,0,4.871-8.175,11.723,11.723,0,0,0,.1-1.566A12.576,12.576,0,0,0-239.029,66.6ZM-250.9,79.578a6.144,6.144,0,0,1-4.929-6.382c.041-5.268,4.556-7.319,8.31-6.416a3.621,3.621,0,0,1,.448.115,6.251,6.251,0,0,1,4.535,6.3c-.048,5.031-4.454,7.176-8.181,6.429A1.819,1.819,0,0,0-250.9,79.578Z" transform="translate(272.166 -50.239)" fill="#fdd983"/></g><path d="M304.65,41.934H243.865a21.725,21.725,0,0,1,.714-10.209,12.231,12.231,0,0,1,1.461-3.141A8.008,8.008,0,0,1,260.1,30.227a32.815,32.815,0,0,1,4.3-13.456,14.546,14.546,0,0,1,11.436-6.7A15.331,15.331,0,0,1,288,17.423c2.749,4.1,4.333,13.882,4.333,13.882s1.77-2.922,4.406-2.592a6.707,6.707,0,0,1,4.116,2.7,17.152,17.152,0,0,1,3.792,10.211Z" transform="translate(27.635 351.549)" fill="#e2e2e2"/></g></svg>