<svg xmlns="http://www.w3.org/2000/svg" width="105.768" height="53.084" viewBox="0 0 105.768 53.084"><g transform="translate(-51.508 -340.399)"><path d="M284.237,31.286H243.763a14.465,14.465,0,0,1,.475-6.8,8.143,8.143,0,0,1,.973-2.092,5.332,5.332,0,0,1,9.36,1.094,21.85,21.85,0,0,1,2.862-8.96,9.685,9.685,0,0,1,7.615-4.463,10.208,10.208,0,0,1,8.1,4.9c1.83,2.732,2.885,9.244,2.885,9.244s1.179-1.946,2.934-1.726a4.466,4.466,0,0,1,2.741,1.8,11.421,11.421,0,0,1,2.525,6.8Z" transform="translate(-192.052 330.331)" fill="#e2e2e2"/><path d="M100.321,22.6a14.259,14.259,0,0,1-2.172,5.441,18.982,18.982,0,0,1-20.3,8.776,19.337,19.337,0,0,1-11.347-7.395,18.382,18.382,0,0,1-2.028-3.565A18.971,18.971,0,0,1,65.066,9.7,19.225,19.225,0,0,1,77.213.094a1.774,1.774,0,0,1,2.2.764,1.676,1.676,0,0,1-.3,2.088A12.939,12.939,0,0,0,86.57,25.02a13.3,13.3,0,0,0,10.739-3.788,1.757,1.757,0,0,1,3.013,1.372Z" transform="translate(18.36 348.865)" fill="#282828"/><path d="M304.65,41.934H243.865a21.725,21.725,0,0,1,.714-10.209,12.231,12.231,0,0,1,1.461-3.141A8.008,8.008,0,0,1,260.1,30.227a32.815,32.815,0,0,1,4.3-13.456,14.546,14.546,0,0,1,11.436-6.7A15.331,15.331,0,0,1,288,17.423c2.749,4.1,4.333,13.882,4.333,13.882s1.77-2.922,4.406-2.592a6.707,6.707,0,0,1,4.116,2.7,17.152,17.152,0,0,1,3.792,10.211Z" transform="translate(-147.375 351.549)" fill="#e2e2e2"/></g></svg>