<svg xmlns="http://www.w3.org/2000/svg" width="105.768" height="55.509" viewBox="0 0 105.768 55.509"><g transform="translate(-51.508 -340)"><path d="M284.237,31.286H243.763a14.465,14.465,0,0,1,.475-6.8,8.143,8.143,0,0,1,.973-2.092,5.332,5.332,0,0,1,9.36,1.094,21.85,21.85,0,0,1,2.862-8.96,9.685,9.685,0,0,1,7.615-4.463,10.208,10.208,0,0,1,8.1,4.9c1.83,2.732,2.885,9.244,2.885,9.244s1.179-1.946,2.934-1.726a4.466,4.466,0,0,1,2.741,1.8,11.421,11.421,0,0,1,2.525,6.8Z" transform="translate(-192.052 330.331)" fill="#e2e2e2"/><g transform="translate(1845.5 4179)"><path d="M-71.05,98.281c3.694-4.1,6.367-7.575,6.367-8.783,0-1.3-2.677-4.843-6.377-8.974-.309-5.442-.915-9.746-1.825-10.655-1.162-1.163-5.846-1.706-10.808-1.954-4.031-3.594-7.466-6.172-8.744-6.172-1.37,0-4.868,2.582-8.933,6.181-4.948.255-9.625.8-10.765,1.945-.908.908-1.515,5.2-1.824,10.637-3.626,4.09-6.233,7.614-6.233,8.992,0,1.283,2.6,4.743,6.222,8.8.305,5.524.915,9.905,1.834,10.824.851.851,5.18,1.419,10.669,1.706,4.156,3.726,7.721,6.426,9.029,6.426,1.213,0,4.72-2.7,8.845-6.424,5.507-.286,9.853-.855,10.706-1.708C-71.965,108.2-71.355,103.811-71.05,98.281Zm3.665-8.792a22.754,22.754,0,0,1-3.5,4.736c.084-3.144.084-6.452,0-9.591A21.825,21.825,0,0,1-67.385,89.489ZM-111.363,81.6c3.319-3.615,7.448-7.755,11.038-11.069,4.914-.212,10.778-.219,15.67-.023,3.6,3.321,7.742,7.478,11.079,11.113.193,4.877.184,10.717-.025,15.626-3.323,3.59-7.441,7.716-11.024,11.049-4.909.191-10.772.2-15.685.018-3.608-3.346-7.748-7.493-11.07-11.1C-111.564,92.314-111.557,86.481-111.363,81.6Zm36.553-9.871c.444.619.78,2.814,1.008,5.826-2.177-2.3-4.532-4.652-6.827-6.82C-77.642,70.959-75.452,71.289-74.81,71.726Zm-17.676-7.309c.746.123,2.511,1.417,4.773,3.356-1.733-.039-3.394-.055-4.83-.057-1.394,0-3.008.018-4.695.057C-95,65.853-93.241,64.562-92.486,64.417Zm-17.735,7.345c.755-.425,2.882-.753,5.733-.983-2.239,2.113-4.525,4.4-6.64,6.636A20.517,20.517,0,0,1-110.221,71.762ZM-117.5,89.482c.232-.835,1.508-2.575,3.365-4.759-.084,3.08-.086,6.318,0,9.4A20.446,20.446,0,0,1-117.5,89.482Zm7.264,17.731c-.4-.748-.708-2.928-.923-5.856,2.145,2.266,4.468,4.589,6.736,6.741A21.252,21.252,0,0,1-110.235,107.214Zm17.792,7.345c-.824-.246-2.623-1.606-4.891-3.572,1.579.039,3.2.061,4.823.061,1.652,0,3.3-.021,4.907-.062C-89.856,112.945-91.635,114.3-92.443,114.558Zm11.816-6.479c2.28-2.168,4.625-4.513,6.793-6.793a21.819,21.819,0,0,1-.956,5.919A22.812,22.812,0,0,1-80.627,108.079Z" transform="translate(-1653.308 -3900.744)" fill="#39a289"/><path d="M-1932.322,1292.354a10.726,10.726,0,0,1-2.692,3.881,14.391,14.391,0,0,1-3.177,2.6,4.733,4.733,0,0,1-1.215.473,1.7,1.7,0,0,1-2.15-1.545,19.085,19.085,0,0,1,.042-3.374,7.71,7.71,0,0,1,.529-2.161.193.193,0,0,1,.089.027,2.506,2.506,0,0,1-.054.421c-.105.8-.157,1.612-.188,2.42a3.364,3.364,0,0,0,.163,1.564,1.144,1.144,0,0,0,1.013.633h.079a2.3,2.3,0,0,0,.455-.064,8.163,8.163,0,0,0,3.135-1.667,15.766,15.766,0,0,0,3.3-3.587.591.591,0,0,0,.1-.4,71.114,71.114,0,0,0-1.8-7.2c-.125-.383-.333-.739-.495-1.111a.331.331,0,0,1-.024-.215c.125-.386.263-.769.414-1.2.123.146.228.255.315.377a10.914,10.914,0,0,1,1.748,4.086c.29,1.337.466,2.7.665,4.056a12.441,12.441,0,0,0,1.635,5.033,2.884,2.884,0,0,0,1.739,1.367c.037.009.075.012.124.02.074-.973.011-2.449,1.08-2.919l2.538-1.115a.358.358,0,0,0,.183-.145l-6.431-.233a3.941,3.941,0,0,1,1.287-3.447,17.592,17.592,0,0,1,4.51-3.36c-.137-.516-.309-1.024-.4-1.545a2.793,2.793,0,0,1,.037-1.032,1.5,1.5,0,0,1,1.324-1.124.5.5,0,0,1,.233.023,6.586,6.586,0,0,1,2.135,1.28,2.064,2.064,0,0,1,.61,1.934,1.015,1.015,0,0,1-.638.8c-1.417.653-2.871,1.246-4.22,2.019a30.469,30.469,0,0,0-3.026,2.209,2.425,2.425,0,0,0-.326.4h11.1c-.221.632-.418,1.213-.633,1.787-.026.069-.143.127-.228.148a40.659,40.659,0,0,0-8.493,3.363c-.043.022-.083.051-.143.088.411,1.087,1.543,1.566,2.5,2.066.148.077.232.134.227.319,0,.127-.045,1.517-.005,1.523a10.525,10.525,0,0,1-3.214-.83,6.522,6.522,0,0,1-2.344-1.911,6.17,6.17,0,0,1-1.15-3.09C-1932.118,1293.44-1932.23,1292.9-1932.322,1292.354Zm7.777-7.261c.278-.1.512-.181.745-.266s.475-.177.709-.264a2.088,2.088,0,0,0-1.9-1Z" transform="translate(184.344 -5102.074)" fill="#39a289"/></g><path d="M304.65,41.934H243.865a21.725,21.725,0,0,1,.714-10.209,12.231,12.231,0,0,1,1.461-3.141A8.008,8.008,0,0,1,260.1,30.227a32.815,32.815,0,0,1,4.3-13.456,14.546,14.546,0,0,1,11.436-6.7A15.331,15.331,0,0,1,288,17.423c2.749,4.1,4.333,13.882,4.333,13.882s1.77-2.922,4.406-2.592a6.707,6.707,0,0,1,4.116,2.7,17.152,17.152,0,0,1,3.792,10.211Z" transform="translate(-147.375 351.549)" fill="#e2e2e2"/></g></svg>