<svg xmlns="http://www.w3.org/2000/svg" width="50.326" height="27.772" viewBox="0 0 50.326 27.772"><g transform="translate(0.014 -42.6)"><g transform="translate(-0.014 42.6)"><g transform="translate(7.755)"><path d="M32.908,64.334c6.339-7.044,17.559-7.044,17.559-7.044L48.756,42.6c-11.521.553-15.8,6.993-15.8,6.993h-.05s-4.276-6.44-15.8-6.993L15.4,57.291c-.1,0,11.068.05,17.508,7.044Z" transform="translate(-15.399 -42.6)" fill="#39a289"/></g><g transform="translate(0 2.18)"><path d="M50.3,63.72l-2.415-16.2a10.356,10.356,0,0,0-4.88-.5L44.669,61.1H42.808c-.1,0-10.515.151-16.3,6.49l-.5.553H24.494l-.5-.553C18.155,61.255,7.741,61.1,7.64,61.1H5.779l.2-1.862L7.439,46.966a11.177,11.177,0,0,0-4.981.553L-.007,63.72a1.785,1.785,0,0,0,1.962,1.912c3.119-.4,9.358-.5,17.508,2.868,0,0,.1.252.252.654a5.953,5.953,0,0,0,5.434,3.371,6.042,6.042,0,0,0,5.434-3.371,2.921,2.921,0,0,0,.252-.654c8.15-3.371,14.389-3.27,17.508-2.868A1.739,1.739,0,0,0,50.3,63.72Z" transform="translate(0.014 -46.932)" fill="#39a289"/></g></g></g></svg>