<svg xmlns="http://www.w3.org/2000/svg" width="105.768" height="53.084" viewBox="0 0 105.768 53.084"><g transform="translate(-51.508 -340.399)"><path d="M284.237,31.286H243.763a14.465,14.465,0,0,1,.475-6.8,8.143,8.143,0,0,1,.973-2.092,5.332,5.332,0,0,1,9.36,1.094,21.85,21.85,0,0,1,2.862-8.96,9.685,9.685,0,0,1,7.615-4.463,10.208,10.208,0,0,1,8.1,4.9c1.83,2.732,2.885,9.244,2.885,9.244s1.179-1.946,2.934-1.726a4.466,4.466,0,0,1,2.741,1.8,11.421,11.421,0,0,1,2.525,6.8Z" transform="translate(-192.052 330.331)" fill="#e2e2e2"/><g transform="translate(-3185.434 -674.548)"><path d="M85.353,16.305s-13.581,14.859-15.1,17.134-2.162,4.986,0,5.477,22.331,1.4,24.124,0,2.227-5.395,0-6.4-12.966.089-13.861.163c.869-.869,13.714-14.84,14.963-16.958s2.022-5.557,0-6.024-24.372-.986-26.08,0-1.283,5.511,0,6.794S83.21,16.431,85.353,16.305Z" transform="translate(3215.144 1006.926)" fill="#aad09f"/><path d="M78.452,13.41s-8.094,8.856-9,10.212-1.289,2.972,0,3.264,13.309.832,14.378,0,1.327-3.215,0-3.812-7.728.053-8.261.1c.518-.518,8.174-8.845,8.918-10.107s1.205-3.312,0-3.591-14.526-.588-15.544,0-.765,3.285,0,4.049S77.175,13.485,78.452,13.41Z" transform="translate(3198.188 1040.7)" fill="#aad09f"/><path d="M75.707,12.259s-5.912,6.469-6.574,7.459-.941,2.171,0,2.384,9.721.607,10.5,0,.969-2.349,0-2.784-5.644.039-6.034.071c.378-.378,5.97-6.46,6.514-7.382s.88-2.419,0-2.623-10.61-.429-11.353,0-.558,2.4,0,2.958S74.775,12.314,75.707,12.259Z" transform="translate(3191.192 1019.95)" fill="#aad09f"/></g><path d="M304.65,41.934H243.865a21.725,21.725,0,0,1,.714-10.209,12.231,12.231,0,0,1,1.461-3.141A8.008,8.008,0,0,1,260.1,30.227a32.815,32.815,0,0,1,4.3-13.456,14.546,14.546,0,0,1,11.436-6.7A15.331,15.331,0,0,1,288,17.423c2.749,4.1,4.333,13.882,4.333,13.882s1.77-2.922,4.406-2.592a6.707,6.707,0,0,1,4.116,2.7,17.152,17.152,0,0,1,3.792,10.211Z" transform="translate(-147.375 351.549)" fill="#e2e2e2"/></g></svg>