<svg xmlns="http://www.w3.org/2000/svg" width="30.764" height="33.027" viewBox="0 0 30.764 33.027"><g transform="translate(-4.084 -2.061)"><g transform="translate(4.084 2.061)"><path d="M5.691,32.884H33.241v1.653a.551.551,0,0,1-.551.551H6.242a.551.551,0,0,1-.551-.551Zm1.1-1.653v.551H32.139v-.551a.551.551,0,0,0,.479-.281C34.7,27.3,35.313,24.233,34.5,21.583c-1.262-4.039-5.494-6.138-9.252-7.984-2.287-1.1-4.452-2.2-5.235-3.455v-1a3.885,3.885,0,0,0,3.152-2.81.551.551,0,0,0-.882-.551,2.672,2.672,0,0,1-2,.612,2.843,2.843,0,0,1-2.474-3.025,2.673,2.673,0,0,1,.1-.634.551.551,0,0,0-.882-.551,4.022,4.022,0,0,0-1.427,3.306,3.94,3.94,0,0,0,3.306,3.659v1c-.782,1.251-2.948,2.353-5.235,3.455-3.758,1.846-7.99,3.945-9.252,7.984-.81,2.65-.2,5.714,1.884,9.367A.551.551,0,0,0,6.793,31.231Z" transform="translate(-4.084 -2.061)" fill="#ff634d"/></g></g></svg>