<svg xmlns="http://www.w3.org/2000/svg" width="99.637" height="57.501" viewBox="0 0 99.637 57.501"><g transform="translate(-222.442 -339.398)"><path d="M284.237,31.286H243.763a14.465,14.465,0,0,1,.475-6.8,8.143,8.143,0,0,1,.973-2.092,5.332,5.332,0,0,1,9.36,1.094,21.85,21.85,0,0,1,2.862-8.96,9.685,9.685,0,0,1,7.615-4.463,10.208,10.208,0,0,1,8.1,4.9c1.83,2.732,2.885,9.244,2.885,9.244s1.179-1.946,2.934-1.726a4.466,4.466,0,0,1,2.741,1.8,11.421,11.421,0,0,1,2.525,6.8Z" transform="translate(37.842 329.331)" fill="#e2e2e2"/><g transform="translate(1976.375 -188.844)"><g transform="translate(-1735.628 528.242)"><g transform="translate(34.413)"><path d="M-1522.683,547.367a6.612,6.612,0,0,1-.576,2.337,11.165,11.165,0,0,1-2.754,3.044,6.243,6.243,0,0,0-1.268,1.636,6.448,6.448,0,0,0-.531,1.589,3.845,3.845,0,0,0-.181,1.811,2.43,2.43,0,0,0,.959,1.247l-.356.41a1.821,1.821,0,0,0-.33,1.785,2.447,2.447,0,0,0,1.105,1.171l-.329.448a1.805,1.805,0,0,0-.295,1.435,2.346,2.346,0,0,0,1.172,1.387l-.331.45a1.738,1.738,0,0,0-.321.879,3.163,3.163,0,0,0,0,.454c.008.147.051.21-.063.277a1.388,1.388,0,0,1-.391.069,21.349,21.349,0,0,1-3.739.349,11.527,11.527,0,0,1-3.9-.578c-5.009-1.754-6.863-6.552-8.117-11.474a43.223,43.223,0,0,1-1.869-8.5c-.993-8.775-.161-9.845.112-10.2a.958.958,0,0,1,.761-.4,1,1,0,0,1,.1.005c1.614.177,2.325,3.026,3.147,6.326.329,1.32.665,2.667,1.054,3.789a28.852,28.852,0,0,0-.172-2.925c-.157-1.488-.262-2.314-.354-3.043-.134-1.045-.24-1.871-.427-4.1-.13-1.555-.206-4.323.739-5.389a1.377,1.377,0,0,1,.993-.484h.058c1.732,0,2.7,2.395,3.2,3.727a24.857,24.857,0,0,1,1.187,4.608c.13.767.236,1.537.33,2.309a20.347,20.347,0,0,0,.454,2.075,26,26,0,0,0-.631-4.457c-.338-2.05-.83-4.084-1.052-6.151-.144-1.339-.442-3.423.487-4.565a1.274,1.274,0,0,1,1.009-.486,1.575,1.575,0,0,1,.24.02c2.507.4,3.844,5.995,3.988,6.631.271,1.2.5,2.412.717,3.623.2,1.1.571,2.284.664,3.4-.191-2.272-.586-4.525-.681-6.805-.062-1.493-.443-3.922.71-5.125a1.539,1.539,0,0,1,1.135-.472c.045,0,.09,0,.137.005,2.036.145,3.221,3.261,3.845,10.108q.182,2,.264,4.013A31.458,31.458,0,0,1-1522.683,547.367Z" transform="translate(1545.272 -528.242)" fill="#777"/></g><path d="M-1719.846,568.146c-4.456,0-10.3-1.922-12.207-4.775-2.3-3.439-3.114-7.862-3.4-10.968a26.242,26.242,0,0,1,.478-9.33c.356-1.126.8-1.777,1.348-1.99a1.9,1.9,0,0,1,.687-.132c2.385,0,3.23,4.7,3.523,6.932.222,1.69.318,3.373,1.169,4.341s2,1.285,2.2,1.084-.7-1.618-1.151-2.286a6.761,6.761,0,0,1-.563-3.125c.075-.885.1-1.772.126-2.66.051-1.651.1-3.3.241-4.949q.041-.483.086-.966c.6-6.663,1.758-9.7,3.74-9.839.046,0,.091-.005.135-.005a1.493,1.493,0,0,1,1.1.46c.855.89.777,2.824.694,4.871-.01.242-.02.481-.027.715-.032.958-.166,2-.308,3.1-.117.907-.241,1.874-.329,2.924.257-1.036.419-1.97.6-3.015.185-1.066.4-2.275.745-3.819.14-.619,1.439-6.06,3.88-6.454a1.493,1.493,0,0,1,.234-.019,1.24,1.24,0,0,1,.983.474c1.056,1.283.419,5.248.1,6.893-.608,3.1-1.056,5.893-1.293,7.99a15.863,15.863,0,0,0,.5-2.061,34.489,34.489,0,0,1,1.062-5.622c.054-.2,1.356-4.811,3.508-4.811h.056a1.339,1.339,0,0,1,.967.473c.921,1.039.845,3.731.718,5.244-.182,2.172-.285,2.977-.415,3.995-.091.709-.193,1.511-.345,2.958a27.472,27.472,0,0,0-.166,2.846c.378-1.094.7-2.4,1.025-3.689.8-3.21,1.493-5.983,3.064-6.155a.956.956,0,0,1,.1-.005.933.933,0,0,1,.741.385c.266.342,1.075,1.383.108,9.925a54.7,54.7,0,0,1-2.028,9.332c-1.221,4.793-3.025,9.463-7.907,11.172A11.211,11.211,0,0,1-1719.846,568.146Z" transform="translate(1735.628 -528.242)" fill="#777"/><g transform="translate(54.367 12.506)"><path d="M-1424.752,606.146q-.013.667-.05,1.33-.043.8-.122,1.589c-.048.481-.18.994-.18,1.476a22.686,22.686,0,0,1-3.189,9.229,9.272,9.272,0,0,1-4.209,2.922l.316.455-.128.052-.389.157-.061.025s-.287-.532-.318-.578a2.061,2.061,0,0,0-.521-.52c-.03-.021-.358-.25-.356-.253a3.751,3.751,0,0,0,.538-.883,1.818,1.818,0,0,0,.051-1.024,1.785,1.785,0,0,0-.737-1.052l-.009-.007-.015-.011-.392-.273.282-.389.042-.058a1.755,1.755,0,0,0,.222-.419c.007-.02.014-.04.022-.063a1.809,1.809,0,0,0-.011-1.128,1.937,1.937,0,0,0-.573-.837l-.358-.318.316-.362.015-.016c.022-.023.043-.049.061-.072a.1.1,0,0,0,.015-.018,1.935,1.935,0,0,0,.388-1.089,1.785,1.785,0,0,0-.1-.588,1.359,1.359,0,0,0-.258-.491l-.005-.009-.262-.38.023-.016.007,0a3.7,3.7,0,0,0,.393-.269,1.858,1.858,0,0,0,.69-.857,3.85,3.85,0,0,0,.152-.982c.141-.107.814-.49.945-.568a1.886,1.886,0,0,0,.853-.985c.081-.17.258-.678.327-.861a14.55,14.55,0,0,0,.53-3.388,19.464,19.464,0,0,1,.716-3.317,10.162,10.162,0,0,1,1.252-2.668,2.359,2.359,0,0,1,1.749-1.21,1.412,1.412,0,0,1,.51.1,1.811,1.811,0,0,1,.813,1.026,9.978,9.978,0,0,1,.623,2.223A26.944,26.944,0,0,1-1424.752,606.146Z" transform="translate(1434.897 -597.42)" fill="#777"/></g></g><g transform="translate(-1692.627 550.559)"><path d="M-1491.487,769.075c.107-.132.031-.356.051-.574a2.384,2.384,0,0,1,2.058-2.215,2.818,2.818,0,0,1,2.108.524,2.554,2.554,0,0,1,.085,2.771,2.32,2.32,0,0,1-2.823,1.032c-.062-.022-.124-.041-.24-.08-.181-.055-.746,1.732-.813,1.927a10.054,10.054,0,0,0,.009,6.981,2.644,2.644,0,0,0-1.074-1.179,5.884,5.884,0,0,0-3.846-.964c-.579.108-1.5.417-1.694-.4a7.954,7.954,0,0,1,.416-3.716,5.076,5.076,0,0,1,3.852-3.939c.534-.095,1.347.129,1.825-.1A.249.249,0,0,0-1491.487,769.075Z" transform="translate(1497.765 -745.554)" fill="#ff634d"/><path d="M-1370.909,666.9a1.223,1.223,0,0,1,.763,1.587,1.247,1.247,0,0,1-1.591.775,1.3,1.3,0,0,1-.775-1.6A1.259,1.259,0,0,1-1370.909,666.9Z" transform="translate(1395.209 -664.092)" fill="#ff634d"/><path d="M-1368.064,686.637a1.247,1.247,0,0,1-1.579.793,1.256,1.256,0,0,1-.783-1.587,1.228,1.228,0,0,1,1.578-.783A1.225,1.225,0,0,1-1368.064,686.637Z" transform="translate(1393.5 -678.971)" fill="#ff634d"/><path d="M-1388.8,735.941a1.242,1.242,0,0,1-1.577.795,1.241,1.241,0,0,1-.8-1.554,1.248,1.248,0,0,1,1.584-.822A1.252,1.252,0,0,1-1388.8,735.941Z" transform="translate(1410.492 -719.363)" fill="#ff634d"/><path d="M-1440,720.151a1.229,1.229,0,0,1-.488.638l0,0a1.221,1.221,0,0,1-.8.2,1.3,1.3,0,0,1-.289-.062,1.243,1.243,0,0,1-.777-1.587,1.234,1.234,0,0,1,.678-.74,1.231,1.231,0,0,1,.886-.045l.018.005A1.236,1.236,0,0,1-1440,720.151Z" transform="translate(1452.43 -706.423)" fill="#ff634d"/><path d="M-1406.089,745.759a1.237,1.237,0,0,1,1.565-.818,1.262,1.262,0,0,1,.812,1.574,1.272,1.272,0,0,1-1.574.821A1.249,1.249,0,0,1-1406.089,745.759Z" transform="translate(1422.712 -728.035)" fill="#ff634d"/><path d="M-1441.212,755.111a1.251,1.251,0,0,1,1.574-.81,1.278,1.278,0,0,1,.793,1.61,1.263,1.263,0,0,1-1.575.777A1.233,1.233,0,0,1-1441.212,755.111Z" transform="translate(1451.49 -735.7)" fill="#ff634d"/><path d="M-1420.888,752.973a1.209,1.209,0,0,1-1.572.786,1.25,1.25,0,0,1-.8-1.58,1.264,1.264,0,0,1,1.591-.784A1.216,1.216,0,0,1-1420.888,752.973Z" transform="translate(1436.782 -733.318)" fill="#ff634d"/><path d="M-1373.031,653.266a1.239,1.239,0,0,1-1.016.839c.007-.054.013-.107.018-.159.067-.607.118-1.219.15-1.815.005-.067.009-.13.013-.2l.006-.085v-.031c0-.043.005-.087.007-.13h.058A1.232,1.232,0,0,1-1373.031,653.266Z" transform="translate(1396.413 -651.69)" fill="#ff634d"/><path d="M-1426.785,653.7a1.242,1.242,0,0,1-.949.835,0,0,0,0,1,0,0,1.238,1.238,0,0,1-.631-.043,1.188,1.188,0,0,1-.208-.094.407.407,0,0,1-.045-.029,13.531,13.531,0,0,0,1.589-1.893,1.248,1.248,0,0,1,.161.235A1.25,1.25,0,0,1-1426.785,653.7Z" transform="translate(1441.12 -652.337)" fill="#ff634d"/><path d="M-1436.956,738.181a1.165,1.165,0,0,1-.121.258,1.24,1.24,0,0,1-1.444.526,1.268,1.268,0,0,1-.8-1.582,1.27,1.27,0,0,1,.719-.765,1.248,1.248,0,0,1,.819-.062.425.425,0,0,1,.043.013,1.252,1.252,0,0,1,.839,1.045A1.235,1.235,0,0,1-1436.956,738.181Z" transform="translate(1449.94 -721.18)" fill="#ff634d"/><path d="M-1444.366,683.818a1.246,1.246,0,0,1-.578.689,1.258,1.258,0,0,1-.841.137,1.434,1.434,0,0,1-.168-.043,1.241,1.241,0,0,1-.785-1.582,1.235,1.235,0,0,1,1.079-.846,1.273,1.273,0,0,1,.5.062,1.26,1.26,0,0,1,.3.148v0A1.262,1.262,0,0,1-1444.366,683.818Z" transform="translate(1456.017 -676.659)" fill="#ff634d"/><path d="M-1443.035,702.02a1.223,1.223,0,0,1-.5.647,1.227,1.227,0,0,1-.808.193,1.347,1.347,0,0,1-.273-.056,1.231,1.231,0,0,1-.794-1.575,1.272,1.272,0,0,1,.808-.8,1.206,1.206,0,0,1,.774,0c.021.007.043.016.065.025A1.28,1.28,0,0,1-1443.035,702.02Z" transform="translate(1454.925 -691.567)" fill="#ff634d"/><path d="M-1371.363,703.075a1.205,1.205,0,0,1,.809,1.515,1.236,1.236,0,0,1-1.567.853,1.275,1.275,0,0,1-.823-1.552A1.239,1.239,0,0,1-1371.363,703.075Z" transform="translate(1395.551 -693.718)" fill="#ff634d"/><path d="M-1378.223,720.092a1.214,1.214,0,0,1,.782,1.577,1.253,1.253,0,0,1-1.614.77,1.252,1.252,0,0,1-.732-1.589A1.211,1.211,0,0,1-1378.223,720.092Z" transform="translate(1401.174 -707.667)" fill="#ff634d"/><path d="M-1440.313,665.28v0c-.023-.015-.047-.028-.072-.041a1.006,1.006,0,0,1-.141.1,3.846,3.846,0,0,0-1.466,1.357c0,.127-.006.255-.019.381a1.244,1.244,0,0,0,.6.426,1.432,1.432,0,0,0,.168.043,1.257,1.257,0,0,0,.84-.137,1.246,1.246,0,0,0,.579-.689A1.262,1.262,0,0,0-1440.313,665.28Z" transform="translate(1452.09 -662.788)" fill="#ff634d"/></g></g><path d="M298.157,38.547H243.833a19.415,19.415,0,0,1,.638-9.124,10.931,10.931,0,0,1,1.306-2.807,7.156,7.156,0,0,1,12.563,1.468,29.327,29.327,0,0,1,3.841-12.026,13,13,0,0,1,10.22-5.99,13.7,13.7,0,0,1,10.875,6.574c2.457,3.667,3.873,12.407,3.873,12.407s1.582-2.612,3.938-2.317a5.994,5.994,0,0,1,3.679,2.41,15.329,15.329,0,0,1,3.389,9.125Z" transform="translate(-21.118 358.353)" fill="#e2e2e2"/></g></svg>