<svg xmlns="http://www.w3.org/2000/svg" width="103.884" height="56.968" viewBox="0 0 103.884 56.968"><g transform="translate(-218.195 -339.399)"><path d="M284.237,31.286H243.763a14.465,14.465,0,0,1,.475-6.8,8.143,8.143,0,0,1,.973-2.092,5.332,5.332,0,0,1,9.36,1.094,21.85,21.85,0,0,1,2.862-8.96,9.685,9.685,0,0,1,7.615-4.463,10.208,10.208,0,0,1,8.1,4.9c1.83,2.732,2.885,9.244,2.885,9.244s1.179-1.946,2.934-1.726a4.466,4.466,0,0,1,2.741,1.8,11.421,11.421,0,0,1,2.525,6.8Z" transform="translate(37.842 329.331)" fill="#e2e2e2"/><g transform="translate(-3326.08 -589.974)"><path d="M973.975,602.3c-1.894-1.884-4.51-3.841-6.77-3.841s-3.413,3.542-3.037,5.292,2.616,1.7,4.848,3.935,2.571,4.622,4.08,5.026,5.275-.9,5.275-3.07S975.92,604.235,973.975,602.3Z" transform="translate(2649.448 332.331)" fill="#ff634d"/><path d="M632.908,674.023a20.924,20.924,0,1,1,20.937,20.924A20.954,20.954,0,0,1,632.908,674.023Zm36.629-.028a15.7,15.7,0,1,0-15.66,15.717A15.651,15.651,0,0,0,669.537,673.995Z" transform="translate(2947.284 283.211)" fill="#ff634d"/><path d="M-.031,1.619C.2.755,2.1.6,2.689,1.619s-.032,11.128-.032,11.128H-.063S-.263,2.483-.031,1.619Z" transform="translate(3599.82 944.92)" fill="#ff634d"/><path d="M.157.471c.386-.669,2.25-.586,2.836,0s.064,8.405.064,8.405H.22S-.23,1.14.157.471Z" transform="translate(3608.456 962.408) rotate(135)" fill="#ff634d"/><circle cx="2.525" cy="2.525" r="2.525" transform="translate(3598.495 954.764)" fill="#ff634d"/><path d="M968.5,602.3c1.894-1.884,4.51-3.841,6.77-3.841s3.413,3.542,3.037,5.292-2.616,1.7-4.848,3.935-2.571,4.622-4.08,5.026-5.275-.9-5.275-3.07S966.551,604.235,968.5,602.3Z" transform="translate(2609.988 332.331)" fill="#ff634d"/></g><path d="M304.65,41.934H243.865a21.725,21.725,0,0,1,.714-10.209,12.231,12.231,0,0,1,1.461-3.141A8.008,8.008,0,0,1,260.1,30.227a32.815,32.815,0,0,1,4.3-13.456,14.546,14.546,0,0,1,11.436-6.7A15.331,15.331,0,0,1,288,17.423c2.749,4.1,4.333,13.882,4.333,13.882s1.77-2.922,4.406-2.592a6.707,6.707,0,0,1,4.116,2.7,17.152,17.152,0,0,1,3.792,10.211Z" transform="translate(-25.365 354.432)" fill="#e2e2e2"/></g></svg>